<?xml version="1.0" encoding="utf-8"?>
<!-- Generator: Adobe Illustrator 25.0.0, SVG Export Plug-In . SVG Version: 6.00 Build 0)  -->
<svg version="1.1" id="Capa_1" xmlns="http://www.w3.org/2000/svg" xmlns:xlink="http://www.w3.org/1999/xlink" x="0px" y="0px"
	 viewBox="0 0 354.1 220.8" style="enable-background:new 0 0 354.1 220.8;" xml:space="preserve">
<style type="text/css">
	.st0{fill:#21284F;}
</style>
<g>
	<path class="st0" d="M66.7,216.1v-15.3h5.7c1.2,0,2.1,0.2,2.8,0.5c0.7,0.3,1.3,0.8,1.7,1.4c0.4,0.6,0.6,1.3,0.6,2
		c0,0.7-0.2,1.3-0.5,1.8c-0.4,0.6-0.9,1-1.6,1.4c0.9,0.3,1.6,0.7,2.1,1.4s0.7,1.4,0.7,2.3c0,0.7-0.2,1.4-0.5,2s-0.7,1.1-1.1,1.4
		c-0.4,0.3-1,0.6-1.7,0.8c-0.7,0.2-1.5,0.3-2.5,0.3H66.7z M68.7,207.2H72c0.9,0,1.5-0.1,1.9-0.2c0.5-0.2,0.9-0.4,1.2-0.8
		s0.4-0.8,0.4-1.3c0-0.5-0.1-1-0.4-1.3c-0.2-0.4-0.6-0.6-1-0.8c-0.5-0.1-1.2-0.2-2.3-0.2h-3.1V207.2z M68.7,214.3h3.8
		c0.7,0,1.1,0,1.4-0.1c0.5-0.1,0.9-0.2,1.2-0.4c0.3-0.2,0.6-0.5,0.8-0.8c0.2-0.4,0.3-0.8,0.3-1.3c0-0.6-0.1-1.1-0.4-1.5
		s-0.7-0.7-1.2-0.9c-0.5-0.2-1.3-0.3-2.2-0.3h-3.5V214.3z"/>
	<path class="st0" d="M86,216.1v-15.3h2v15.3H86z"/>
	<path class="st0" d="M96.4,216.1v-15.3h11.1v1.8h-9v4.7h8.5v1.8h-8.5v5.2h9.4v1.8H96.4z"/>
	<path class="st0" d="M115.2,216.1v-15.3h2.1l8,12v-12h1.9v15.3h-2.1l-8-12v12H115.2z"/>
	<path class="st0" d="M135.4,216.1v-15.3h11.1v1.8h-9v4.7h8.5v1.8h-8.5v5.2h9.4v1.8H135.4z"/>
	<path class="st0" d="M153.6,211.2l1.9-0.2c0.1,0.8,0.3,1.4,0.6,1.9s0.8,0.9,1.5,1.2s1.5,0.5,2.3,0.5c0.8,0,1.5-0.1,2-0.3
		c0.6-0.2,1-0.5,1.3-0.9c0.3-0.4,0.4-0.8,0.4-1.3c0-0.5-0.1-0.9-0.4-1.3c-0.3-0.4-0.7-0.7-1.4-0.9c-0.4-0.2-1.3-0.4-2.7-0.7
		s-2.4-0.7-3-1c-0.7-0.4-1.3-0.9-1.6-1.4c-0.4-0.6-0.5-1.2-0.5-1.9c0-0.8,0.2-1.5,0.7-2.2c0.4-0.7,1.1-1.2,1.9-1.5
		c0.8-0.3,1.8-0.5,2.8-0.5c1.1,0,2.1,0.2,3,0.5c0.9,0.4,1.5,0.9,2,1.6s0.7,1.5,0.8,2.4l-1.9,0.1c-0.1-1-0.5-1.7-1.1-2.2
		c-0.6-0.5-1.5-0.7-2.7-0.7c-1.2,0-2.1,0.2-2.7,0.7c-0.6,0.4-0.8,1-0.8,1.6c0,0.5,0.2,1,0.6,1.4c0.4,0.4,1.4,0.7,3.1,1.1
		c1.6,0.4,2.8,0.7,3.4,1c0.9,0.4,1.5,0.9,2,1.6c0.4,0.6,0.6,1.4,0.6,2.2c0,0.8-0.2,1.6-0.7,2.3s-1.1,1.3-2,1.7
		c-0.9,0.4-1.9,0.6-2.9,0.6c-1.4,0-2.5-0.2-3.5-0.6c-0.9-0.4-1.7-1-2.2-1.8C154,213.1,153.7,212.2,153.6,211.2z"/>
	<path class="st0" d="M183.9,216.1v-15.3h6.8c1.4,0,2.4,0.1,3.1,0.4s1.3,0.8,1.7,1.5c0.4,0.7,0.6,1.5,0.6,2.3c0,1.1-0.4,2-1.1,2.7
		c-0.7,0.7-1.8,1.2-3.3,1.4c0.5,0.3,0.9,0.5,1.2,0.8c0.6,0.5,1.2,1.2,1.7,2l2.7,4.2h-2.5l-2-3.2c-0.6-0.9-1.1-1.6-1.5-2.1
		c-0.4-0.5-0.7-0.8-1-1c-0.3-0.2-0.6-0.3-0.9-0.4c-0.2,0-0.6-0.1-1.1-0.1H186v6.8H183.9z M186,207.5h4.3c0.9,0,1.6-0.1,2.2-0.3
		c0.5-0.2,0.9-0.5,1.2-0.9c0.3-0.4,0.4-0.9,0.4-1.4c0-0.7-0.3-1.3-0.8-1.8c-0.5-0.5-1.4-0.7-2.5-0.7H186V207.5z"/>
	<path class="st0" d="M202.4,216.1l5.9-15.3h2.2l6.3,15.3h-2.3l-1.8-4.6h-6.4l-1.7,4.6H202.4z M206.8,209.8h5.2l-1.6-4.2
		c-0.5-1.3-0.8-2.3-1.1-3.2c-0.2,1-0.5,2-0.8,2.9L206.8,209.8z"/>
	<path class="st0" d="M222.8,199.9l1.4-2.9h2.5l-2.3,2.9H222.8z M223.3,216.1v-15.3h2v15.3H223.3z"/>
	<path class="st0" d="M244.5,210.7l2,0.5c-0.4,1.7-1.2,2.9-2.3,3.8c-1.1,0.9-2.4,1.3-4,1.3c-1.6,0-3-0.3-4-1c-1-0.7-1.8-1.6-2.4-2.9
		s-0.8-2.6-0.8-4.1c0-1.6,0.3-3,0.9-4.2c0.6-1.2,1.5-2.1,2.6-2.7s2.4-0.9,3.7-0.9c1.5,0,2.8,0.4,3.9,1.2c1,0.8,1.8,1.9,2.2,3.3
		l-2,0.5c-0.4-1.1-0.9-1.9-1.5-2.4c-0.7-0.5-1.5-0.8-2.5-0.8c-1.2,0-2.2,0.3-2.9,0.8s-1.3,1.3-1.7,2.3c-0.3,0.9-0.5,1.9-0.5,2.9
		c0,1.3,0.2,2.4,0.6,3.4s1,1.7,1.8,2.2c0.8,0.5,1.7,0.7,2.6,0.7c1.1,0,2.1-0.3,2.9-1C243.7,213,244.2,212,244.5,210.7z"/>
	<path class="st0" d="M253.8,216.1v-15.3h11.1v1.8h-9v4.7h8.5v1.8h-8.5v5.2h9.4v1.8H253.8z"/>
	<path class="st0" d="M272,211.2l1.9-0.2c0.1,0.8,0.3,1.4,0.6,1.9s0.8,0.9,1.5,1.2s1.5,0.5,2.3,0.5c0.8,0,1.5-0.1,2-0.3
		c0.6-0.2,1-0.5,1.3-0.9c0.3-0.4,0.4-0.8,0.4-1.3c0-0.5-0.1-0.9-0.4-1.3c-0.3-0.4-0.7-0.7-1.4-0.9c-0.4-0.2-1.3-0.4-2.7-0.7
		s-2.4-0.7-3-1c-0.7-0.4-1.3-0.9-1.6-1.4c-0.4-0.6-0.5-1.2-0.5-1.9c0-0.8,0.2-1.5,0.7-2.2c0.4-0.7,1.1-1.2,1.9-1.5
		c0.8-0.3,1.8-0.5,2.8-0.5c1.1,0,2.1,0.2,3,0.5c0.9,0.4,1.5,0.9,2,1.6s0.7,1.5,0.8,2.4l-1.9,0.1c-0.1-1-0.5-1.7-1.1-2.2
		c-0.6-0.5-1.5-0.7-2.7-0.7c-1.2,0-2.1,0.2-2.7,0.7c-0.6,0.4-0.8,1-0.8,1.6c0,0.5,0.2,1,0.6,1.4c0.4,0.4,1.4,0.7,3.1,1.1
		c1.6,0.4,2.8,0.7,3.4,1c0.9,0.4,1.5,0.9,2,1.6c0.4,0.6,0.6,1.4,0.6,2.2c0,0.8-0.2,1.6-0.7,2.3s-1.1,1.3-2,1.7
		c-0.9,0.4-1.9,0.6-2.9,0.6c-1.4,0-2.5-0.2-3.5-0.6c-0.9-0.4-1.7-1-2.2-1.8C272.3,213.1,272,212.2,272,211.2z"/>
</g>
<path class="st0" d="M208.8,34.8c0,17.2-13.9,31.3-31.2,31.3c-17.3,0-31.4-13.9-31.4-31.3c0-17.4,14-30.9,30.6-31.3
	C194.7,3.1,208.9,17.7,208.8,34.8z M177.5,20.1c0,0,0-0.1,0-0.1c-1.3,0.2-2.7,0.3-4,0.7c-4.7,1.4-8,4.4-9.8,9.1
	c-0.4,1-0.4,1,0.7,1.2c7.1,1.4,13.5,4.3,19.3,8.8c0.3,0.2,0.5,0.3,0.8,0c2.1-1.6,4.3-3.1,6.7-4.3c1.1-0.5,1.1-0.5,1-1.7
	C191.6,26.1,185.2,20.1,177.5,20.1z M155.3,32.7c-2,0.2-4,0.4-6,0.6c-0.4,0-0.5,0.2-0.5,0.6c0,1.1,0.1,2.2,0.1,3.2
	c0,0.5,0.2,0.6,0.6,0.5c3.4-0.6,6.8-0.7,10.3-0.4c5.1,0.5,9.9,2,14.4,4.4c4.2,2.3,7.8,5.2,10.9,8.9c2.4,2.8,4.3,5.8,5.8,9.2
	c0.2,0.4,0.4,0.5,0.7,0.2c0.9-0.6,1.8-1.2,2.8-1.8c0.3-0.2,0.3-0.4,0.2-0.7c-0.6-1.2-1.2-2.4-1.8-3.5c-2.3-3.9-5.1-7.4-8.5-10.4
	c-4.5-4-9.6-6.9-15.3-8.7C164.5,33.4,160,32.7,155.3,32.7z M149.2,40.2c0.4,1.3,0.7,2.5,1,3.6c0.1,0.4,0.3,0.5,0.7,0.4
	c2.6-0.5,5.3-0.5,7.9-0.3c4.8,0.4,9.2,1.9,13.3,4.4c5.5,3.4,9.6,8,12.3,13.8c0.2,0.3,0.3,0.4,0.7,0.3c1-0.4,2.1-0.7,3.1-1.1
	c0.4-0.1,0.4-0.3,0.3-0.7c-1.2-2.8-2.8-5.4-4.7-7.7c-2.2-2.8-4.8-5.2-7.8-7.2c-3.2-2.2-6.6-3.8-10.3-4.8c-4.2-1.2-8.4-1.7-12.8-1.3
	C151.8,39.8,150.6,40,149.2,40.2z M151.4,46.8c0.2,0.4,0.3,0.7,0.4,0.9c0.5,0.9,1,1.7,1.5,2.6c0.2,0.4,0.5,0.5,0.9,0.5
	c2.1-0.2,4.2,0,6.2,0.3c3.4,0.6,6.5,1.9,9.3,3.9c3.1,2.1,5.7,4.9,7.5,8.2c0.2,0.3,0.4,0.4,0.7,0.4c1.1-0.1,2.3-0.2,3.4-0.3
	c0.2,0,0.4-0.1,0.6-0.1c-0.9-3.9-7.3-10.7-12.8-13.5C163.6,46.8,157.7,45.9,151.4,46.8z M176.3,11.9c0-1.7,0-3.4,0-5.2
	c0-0.5-0.1-0.6-0.6-0.6c-3.8,0.3-7.4,1.2-10.9,2.9c-0.4,0.2-0.5,0.3-0.3,0.7c1.8,3,3.5,6.1,5.3,9.1c0.2,0.3,0.3,0.3,0.6,0.2
	c1.7-0.8,3.4-1.2,5.3-1.4c0.4,0,0.6-0.2,0.6-0.6C176.3,15.3,176.3,13.6,176.3,11.9z M179.3,6.1c-0.4-0.1-0.5,0.1-0.5,0.5
	c0,3.5,0,7,0,10.6c0,0.3,0.1,0.5,0.4,0.5c1.9,0.2,3.7,0.6,5.4,1.4c0.3,0.1,0.4,0.1,0.6-0.2c1.8-3.1,3.5-6.1,5.3-9.2
	c0.2-0.3,0.1-0.5-0.2-0.6C186.9,7.4,183.2,6.3,179.3,6.1z M201.7,19.4c-0.1-0.2-0.2-0.4-0.4-0.6c-0.6-0.8-1.2-1.6-1.8-2.4
	c-1.8-2.1-3.8-4-6.1-5.5c-0.3-0.2-0.5-0.2-0.6,0.1c-0.2,0.4-0.4,0.8-0.7,1.2c-1.5,2.7-3.1,5.3-4.6,8c-0.2,0.3-0.1,0.4,0.1,0.6
	c1.6,1.1,2.9,2.4,4,4c0.2,0.3,0.4,0.3,0.6,0.1c2-1.2,4-2.3,6-3.5C199.3,20.7,200.5,20.1,201.7,19.4z M167.8,20.5
	c-0.1-0.1-0.1-0.3-0.2-0.4c-0.2-0.4-0.5-0.8-0.7-1.2c-1.5-2.7-3.1-5.3-4.6-8c-0.2-0.3-0.3-0.3-0.6-0.1c-3.2,2.1-5.8,4.8-8,7.9
	c-0.4,0.6-0.4,0.6,0.2,0.9c3,1.7,6,3.5,9,5.2c0.3,0.2,0.4,0.1,0.6-0.1c1.1-1.5,2.4-2.9,4-4C167.6,20.7,167.7,20.6,167.8,20.5z
	 M194.8,33.7c0.2-0.1,0.4-0.1,0.5-0.2c3.3-1.3,6.7-2.2,10.2-2.7c0.4-0.1,0.5-0.2,0.4-0.6c-0.4-2.9-1.4-5.6-2.6-8.2
	c-0.2-0.4-0.4-0.5-0.8-0.2c-3,1.8-6,3.5-9,5.2c-0.4,0.2-0.4,0.4-0.2,0.7c0.7,1.4,1,2.8,1.3,4.3C194.7,32.6,194.7,33.1,194.8,33.7z
	 M206.3,35.5C206.3,35.5,206.3,35.5,206.3,35.5c0-0.5,0-1,0-1.5c0-0.6-0.1-0.6-0.6-0.5c-4.3,0.7-8.4,1.9-12.3,3.9
	c-2.4,1.2-4.7,2.6-6.8,4.2c-0.3,0.2-0.3,0.3,0,0.6c0.8,0.8,1.6,1.6,2.4,2.4c0.2,0.2,0.4,0.2,0.7,0c1.1-0.7,2.2-1.5,3.3-2.2
	c4-2.3,8.3-3.8,12.8-4.6c0.4-0.1,0.5-0.2,0.5-0.6C206.2,36.6,206.2,36,206.3,35.5z M149,30.7c0.4-0.1,0.7-0.1,0.9-0.1
	c0.9-0.1,1.8-0.2,2.8-0.3c2.5-0.2,5-0.1,7.6,0.1c0.4,0,0.6-0.1,0.7-0.5c0.2-0.7,0.5-1.5,0.8-2.2c0.1-0.4,0.1-0.5-0.2-0.7
	c-3-1.7-5.9-3.4-8.9-5.2c-0.6-0.4-0.7-0.4-1,0.3c-0.7,1.9-1.4,3.7-2,5.6C149.4,28.7,149.3,29.7,149,30.7z M174.4,63.4
	c-1.7-2.8-5.3-6.6-10.3-8.6c-2.7-1.1-5.5-1.6-8.4-1.5c2.3,2.8,4.9,5,8,6.7C167,61.8,170.5,63,174.4,63.4z M205.8,40.4
	c-0.4,0-0.5,0.1-0.7,0.1c-3,0.6-5.9,1.5-8.7,2.9c-1.7,0.9-3.4,2-5.1,3c-0.6,0.3-0.5,0.4-0.1,0.9c0.6,0.8,1.2,1.6,1.8,2.5
	c0.2,0.3,0.4,0.4,0.7,0.1c1-0.7,2-1.3,3-1.9c2.3-1.3,4.6-2.2,7.2-2.9c0.2-0.1,0.5-0.2,0.5-0.4C205,43.3,205.4,41.9,205.8,40.4z
	 M203,48.2c-0.3,0-0.4,0-0.4,0.1c-2.7,0.9-5.2,2.2-7.5,3.9c-0.3,0.2-0.2,0.4-0.1,0.7c0.5,0.9,1,1.9,1.5,2.8c0.3,0.5,0.3,0.6,0.8,0.1
	c1.9-1.8,3.5-3.8,4.8-5.9C202.4,49.3,202.7,48.8,203,48.2z"/>
<g>
	<path class="st0" d="M81.3,101v7.9c0,1.7,0.2,2.8,0.6,3.2c0.5,0.6,1.3,0.9,2.3,0.9h1v0.7H73.6v-0.7h1c1.1,0,2-0.4,2.5-1.1
		c0.3-0.4,0.4-1.4,0.4-2.9V91.4c0-1.7-0.2-2.8-0.5-3.2c-0.5-0.6-1.3-0.9-2.3-0.9h-1v-0.7h9.9c2.4,0,4.3,0.2,5.7,0.7
		c1.4,0.5,2.6,1.3,3.5,2.5c1,1.2,1.4,2.6,1.4,4.2c0,2.2-0.7,4-2.2,5.4c-1.5,1.4-3.5,2.1-6.2,2.1c-0.7,0-1.4,0-2.1-0.1
		C83,101.3,82.2,101.2,81.3,101z M81.3,99.9c0.7,0.1,1.3,0.2,1.9,0.3s1,0.1,1.4,0.1c1.4,0,2.6-0.5,3.6-1.6c1-1.1,1.5-2.5,1.5-4.2
		c0-1.2-0.2-2.3-0.7-3.3c-0.5-1-1.2-1.8-2-2.3c-0.9-0.5-1.9-0.7-3-0.7c-0.7,0-1.5,0.1-2.6,0.4V99.9z"/>
	<path class="st0" d="M117.1,104.6h-10.5l-1.8,4.3c-0.5,1-0.7,1.8-0.7,2.4c0,0.4,0.2,0.8,0.6,1.1c0.4,0.3,1.2,0.5,2.5,0.6v0.7h-8.5
		v-0.7c1.1-0.2,1.9-0.5,2.2-0.8c0.7-0.6,1.4-1.9,2.3-3.9l9.5-22.2h0.7l9.4,22.5c0.8,1.8,1.4,3,2.1,3.5c0.6,0.5,1.5,0.8,2.6,0.9v0.7
		h-10.7v-0.7c1.1-0.1,1.8-0.2,2.2-0.5c0.4-0.3,0.6-0.7,0.6-1.1c0-0.6-0.3-1.5-0.8-2.8L117.1,104.6z M116.6,103.1L112,92.2l-4.7,10.9
		H116.6z"/>
	<path class="st0" d="M162,113.7h-7.2l-9.1-12.6c-0.7,0-1.2,0-1.7,0c-0.2,0-0.4,0-0.6,0s-0.4,0-0.6,0v7.9c0,1.7,0.2,2.8,0.6,3.2
		c0.5,0.6,1.3,0.9,2.3,0.9h1.1v0.7h-11.6v-0.7h1c1.1,0,2-0.4,2.5-1.1c0.3-0.4,0.4-1.4,0.4-2.9V91.4c0-1.7-0.2-2.8-0.6-3.2
		c-0.5-0.6-1.3-0.9-2.3-0.9h-1v-0.7h9.8c2.9,0,5,0.2,6.3,0.6c1.4,0.4,2.5,1.2,3.5,2.3c0.9,1.1,1.4,2.5,1.4,4c0,1.7-0.5,3.1-1.6,4.3
		c-1.1,1.2-2.8,2.1-5,2.6l5.6,7.8c1.3,1.8,2.4,3,3.3,3.5c0.9,0.6,2.1,1,3.6,1.1V113.7z M142.8,99.8c0.3,0,0.5,0,0.7,0
		c0.2,0,0.3,0,0.5,0c2.6,0,4.5-0.6,5.8-1.7c1.3-1.1,2-2.5,2-4.3c0-1.7-0.5-3.1-1.6-4.1c-1.1-1.1-2.5-1.6-4.2-1.6
		c-0.8,0-1.8,0.1-3.1,0.4V99.8z"/>
	<path class="st0" d="M186.9,104.6h-10.5l-1.8,4.3c-0.5,1-0.7,1.8-0.7,2.4c0,0.4,0.2,0.8,0.6,1.1c0.4,0.3,1.2,0.5,2.5,0.6v0.7h-8.5
		v-0.7c1.1-0.2,1.9-0.5,2.2-0.8c0.7-0.6,1.4-1.9,2.3-3.9l9.5-22.2h0.7l9.4,22.5c0.8,1.8,1.4,3,2.1,3.5c0.6,0.5,1.5,0.8,2.6,0.9v0.7
		h-10.7v-0.7c1.1-0.1,1.8-0.2,2.2-0.5c0.4-0.3,0.6-0.7,0.6-1.1c0-0.6-0.3-1.5-0.8-2.8L186.9,104.6z M186.3,103.1l-4.6-10.9
		l-4.7,10.9H186.3z"/>
	<path class="st0" d="M216.8,112.9v0.7h-11.6v-0.7h1c1.1,0,1.9-0.3,2.4-1c0.3-0.4,0.5-1.4,0.5-3.1V91.4c0-1.4-0.1-2.3-0.3-2.7
		c-0.1-0.3-0.4-0.6-0.8-0.9c-0.6-0.3-1.2-0.5-1.8-0.5h-1v-0.7h11.6v0.7h-1c-1.1,0-1.9,0.3-2.4,1c-0.3,0.4-0.5,1.4-0.5,3.1v17.5
		c0,1.4,0.1,2.3,0.3,2.7c0.1,0.3,0.4,0.6,0.8,0.9c0.6,0.3,1.2,0.5,1.8,0.5H216.8z M215.4,77.9l-5.9,6.9h-0.7l2.1-6.9H215.4z"/>
	<path class="st0" d="M243,86v9.3h-0.7c-0.2-1.8-0.7-3.2-1.3-4.3c-0.6-1.1-1.5-1.9-2.6-2.5c-1.1-0.6-2.3-0.9-3.5-0.9
		c-1.4,0-2.5,0.4-3.4,1.3s-1.4,1.8-1.4,2.9c0,0.8,0.3,1.6,0.9,2.3c0.8,1,2.8,2.3,5.9,4c2.5,1.4,4.2,2.4,5.2,3.1
		c0.9,0.7,1.6,1.6,2.1,2.6c0.5,1,0.7,2,0.7,3.1c0,2-0.8,3.8-2.4,5.3c-1.6,1.5-3.6,2.2-6.1,2.2c-0.8,0-1.5-0.1-2.2-0.2
		c-0.4-0.1-1.3-0.3-2.6-0.7s-2.1-0.6-2.5-0.6c-0.3,0-0.6,0.1-0.8,0.3c-0.2,0.2-0.3,0.6-0.4,1.2h-0.7V105h0.7
		c0.3,1.9,0.8,3.4,1.4,4.4c0.6,1,1.5,1.8,2.7,2.4s2.5,1,4,1c1.7,0,3-0.4,3.9-1.3c1-0.9,1.4-1.9,1.4-3.1c0-0.7-0.2-1.3-0.5-2
		c-0.4-0.7-0.9-1.3-1.7-1.9c-0.5-0.4-1.9-1.2-4.2-2.5s-4-2.3-4.9-3.1c-1-0.8-1.7-1.6-2.2-2.6c-0.5-0.9-0.8-2-0.8-3.1
		c0-1.9,0.7-3.6,2.2-5c1.5-1.4,3.4-2.1,5.7-2.1c1.4,0,3,0.4,4.6,1.1c0.7,0.3,1.3,0.5,1.6,0.5c0.3,0,0.6-0.1,0.8-0.3
		c0.2-0.2,0.4-0.6,0.5-1.2H243z"/>
	<path class="st0" d="M268.5,86c3.5,0,6.5,1.3,9.1,4c2.6,2.7,3.9,6,3.9,10c0,4.1-1.3,7.5-3.9,10.2s-5.7,4.1-9.4,4.1
		c-3.7,0-6.8-1.3-9.4-4c-2.5-2.6-3.8-6.1-3.8-10.3c0-4.3,1.5-7.8,4.4-10.5C261.9,87.2,264.9,86,268.5,86z M268.1,87.5
		c-2.4,0-4.4,0.9-5.8,2.7c-1.8,2.2-2.7,5.5-2.7,9.8c0,4.4,0.9,7.8,2.8,10.2c1.4,1.8,3.4,2.7,5.7,2.7c2.5,0,4.6-1,6.3-3
		s2.5-5.1,2.5-9.4c0-4.6-0.9-8.1-2.7-10.3C272.7,88.4,270.7,87.5,268.1,87.5z"/>
</g>
<g>
	<path class="st0" d="M3.9,172.1v-1.7h2.3c2.6,0,4.4-0.8,5.4-2.5c0.7-1,1-3.2,1-6.6v-39.1c0-3.8-0.4-6.1-1.2-7.1
		c-1.2-1.3-2.9-2-5.2-2H3.9v-1.7h24.6c9,0,15.9,1,20.6,3.1c4.7,2.1,8.5,5.5,11.4,10.3c2.9,4.8,4.3,10.3,4.3,16.6
		c0,8.4-2.6,15.5-7.7,21.1c-5.7,6.3-14.5,9.5-26.2,9.5H3.9z M21.1,167.7c3.8,0.8,6.9,1.2,9.5,1.2c6.9,0,12.6-2.4,17.2-7.3
		c4.6-4.8,6.8-11.4,6.8-19.7c0-8.4-2.3-15-6.8-19.8c-4.6-4.8-10.4-7.2-17.5-7.2c-2.7,0-5.7,0.4-9.1,1.3V167.7z"/>
	<path class="st0" d="M95.3,115.3c7.2,0,13.4,2.7,18.7,8.2c5.3,5.5,7.9,12.3,7.9,20.5c0,8.4-2.7,15.4-8,21
		c-5.3,5.6-11.8,8.3-19.3,8.3c-7.6,0-14.1-2.7-19.3-8.1c-5.2-5.4-7.8-12.5-7.8-21.1c0-8.8,3-16,9-21.6
		C81.8,117.7,88.1,115.3,95.3,115.3z M94.5,118.3c-5,0-8.9,1.8-11.9,5.5c-3.7,4.6-5.6,11.3-5.6,20.1c0,9.1,1.9,16,5.8,20.9
		c3,3.7,6.9,5.6,11.8,5.6c5.2,0,9.5-2,12.9-6.1c3.4-4.1,5.1-10.5,5.1-19.2c0-9.5-1.9-16.6-5.6-21.2C104,120.2,99.8,118.3,94.5,118.3
		z"/>
	<path class="st0" d="M178.5,172.1h-14.8l-18.8-25.9c-1.4,0.1-2.5,0.1-3.4,0.1c-0.4,0-0.7,0-1.1,0s-0.8,0-1.3-0.1v16.1
		c0,3.5,0.4,5.7,1.1,6.5c1,1.2,2.6,1.8,4.7,1.8h2.2v1.5h-23.8v-1.5h2.1c2.3,0,4-0.8,5-2.3c0.6-0.8,0.9-2.9,0.9-6v-35.8
		c0-3.5-0.4-5.7-1.1-6.5c-1.1-1.2-2.6-1.8-4.7-1.8h-2.1v-1.5h20.2c5.9,0,10.2,0.4,13,1.3c2.8,0.9,5.2,2.4,7.1,4.7
		c2,2.3,2.9,5.1,2.9,8.2c0,3.4-1.1,6.4-3.3,8.9c-2.2,2.5-5.7,4.3-10.3,5.3l11.5,15.9c2.6,3.7,4.9,6.1,6.8,7.3c1.9,1.2,4.3,2,7.4,2.3
		V172.1z M139.1,143.5c0.5,0,1,0,1.4,0c0.4,0,0.7,0,0.9,0c5.3,0,9.3-1.1,12-3.4c2.7-2.3,4-5.2,4-8.8c0-3.5-1.1-6.3-3.3-8.5
		c-2.2-2.2-5-3.3-8.6-3.3c-1.6,0-3.7,0.3-6.4,0.8V143.5z"/>
	<path class="st0" d="M212.7,153.5h-21.5l-3.8,8.8c-0.9,2.2-1.4,3.8-1.4,4.8c0,0.8,0.4,1.6,1.2,2.2c0.8,0.6,2.5,1.1,5.2,1.2v1.5H175
		v-1.5c2.3-0.4,3.8-0.9,4.5-1.6c1.4-1.3,2.9-4,4.6-8l19.5-45.7h1.4l19.3,46.2c1.6,3.7,3,6.1,4.2,7.2c1.3,1.1,3,1.7,5.3,1.9v1.5
		h-21.9v-1.5c2.2-0.1,3.7-0.5,4.5-1.1c0.8-0.6,1.2-1.4,1.2-2.3c0-1.2-0.5-3.1-1.6-5.7L212.7,153.5z M211.6,150.5l-9.4-22.4
		l-9.7,22.4H211.6z"/>
	<path class="st0" d="M233,172.1v-1.5h2.1c2.3,0,4-0.8,5-2.2c0.6-0.9,0.9-2.9,0.9-6.1v-35.8c0-3.5-0.4-5.6-1.1-6.5
		c-1.1-1.2-2.6-1.8-4.7-1.8H233v-1.5h22.6c8.3,0,14.6,0.9,18.9,2.8s7.8,5,10.4,9.4c2.6,4.4,3.9,9.5,3.9,15.2c0,7.7-2.3,14.2-7,19.4
		c-5.3,5.8-13.3,8.7-24.1,8.7H233z M248.8,168.1c3.5,0.8,6.4,1.1,8.7,1.1c6.3,0,11.6-2.2,15.8-6.7c4.2-4.4,6.3-10.5,6.3-18.1
		c0-7.7-2.1-13.7-6.3-18.1c-4.2-4.4-9.5-6.6-16.1-6.6c-2.5,0-5.3,0.4-8.4,1.2V168.1z"/>
	<path class="st0" d="M322.1,110.2c7.9,0,14.7,3,20.4,8.9c5.8,6,8.6,13.4,8.6,22.3c0,9.2-2.9,16.8-8.7,22.9s-12.8,9.1-21.1,9.1
		c-8.3,0-15.3-3-21-8.9c-5.7-5.9-8.5-13.6-8.5-23c0-9.6,3.3-17.5,9.8-23.5C307.4,112.8,314.2,110.2,322.1,110.2z M321.3,113.4
		c-5.4,0-9.8,2-13,6c-4.1,5-6.1,12.3-6.1,22c0,9.9,2.1,17.5,6.3,22.8c3.2,4,7.5,6.1,12.9,6.1c5.7,0,10.4-2.2,14.1-6.6
		c3.7-4.4,5.6-11.4,5.6-21c0-10.4-2-18.1-6.1-23.2C331.6,115.4,327.1,113.4,321.3,113.4z"/>
</g>
</svg>
