<?xml version="1.0" encoding="utf-8"?>
<!-- Generator: Adobe Illustrator 25.0.0, SVG Export Plug-In . SVG Version: 6.00 Build 0)  -->
<svg version="1.1" id="Capa_1" xmlns="http://www.w3.org/2000/svg" xmlns:xlink="http://www.w3.org/1999/xlink" x="0px" y="0px"
	 viewBox="0 0 257.3 82.2" style="enable-background:new 0 0 257.3 82.2;" xml:space="preserve">
<style type="text/css">
	.st0{fill:#21284F;}
</style>
<path class="st0" d="M70.5,39.2c0,18.9-15.3,34.4-34.3,34.4c-19,0.1-34.5-15.3-34.5-34.4c0-19.2,15.4-34,33.6-34.4
	C55,4.3,70.6,20.4,70.5,39.2z M36.1,23c0-0.1,0-0.1,0-0.2c-1.5,0.2-3,0.3-4.4,0.8c-5.2,1.6-8.8,4.9-10.8,10
	c-0.4,1.1-0.4,1.1,0.7,1.4c7.8,1.5,14.9,4.7,21.2,9.6c0.3,0.2,0.5,0.3,0.9,0c2.3-1.8,4.8-3.4,7.4-4.7c1.2-0.6,1.2-0.6,1.1-1.9
	C51.6,29.6,44.6,23,36.1,23z M11.7,36.8c-2.2,0.2-4.4,0.5-6.6,0.7c-0.4,0-0.6,0.2-0.5,0.6c0,1.2,0.1,2.4,0.1,3.6
	c0,0.5,0.2,0.6,0.7,0.5c3.7-0.7,7.5-0.8,11.3-0.4c5.6,0.6,10.9,2.2,15.8,4.9c4.6,2.5,8.6,5.7,12,9.7c2.6,3.1,4.7,6.4,6.4,10.1
	c0.2,0.4,0.4,0.5,0.8,0.3c1-0.7,2-1.3,3-2c0.3-0.2,0.4-0.4,0.2-0.8c-0.7-1.3-1.3-2.6-2-3.9c-2.5-4.3-5.6-8.1-9.4-11.4
	c-4.9-4.4-10.5-7.6-16.8-9.6C21.7,37.6,16.8,36.9,11.7,36.8z M5,45.1c0.4,1.4,0.8,2.7,1.1,4c0.1,0.5,0.4,0.5,0.8,0.5
	c2.9-0.5,5.8-0.6,8.7-0.3c5.2,0.5,10.1,2.1,14.6,4.8c6.1,3.7,10.6,8.8,13.6,15.2c0.2,0.4,0.4,0.5,0.8,0.4c1.1-0.4,2.3-0.8,3.4-1.2
	c0.4-0.1,0.5-0.3,0.3-0.7c-1.4-3.1-3.1-5.9-5.2-8.5c-2.5-3.1-5.3-5.7-8.6-8c-3.5-2.4-7.2-4.2-11.3-5.3c-4.6-1.3-9.3-1.8-14-1.4
	C7.8,44.7,6.5,44.9,5,45.1z M7.4,52.3c0.2,0.4,0.3,0.7,0.4,1c0.5,1,1.1,1.9,1.7,2.9c0.2,0.4,0.5,0.5,1,0.5c2.3-0.2,4.6,0,6.9,0.4
	c3.7,0.7,7.2,2.1,10.3,4.2c3.5,2.4,6.2,5.4,8.3,9c0.2,0.3,0.4,0.4,0.7,0.4c1.2-0.1,2.5-0.2,3.7-0.3c0.2,0,0.5-0.1,0.7-0.2
	c-1-4.3-8.1-11.8-14.1-14.9C20.8,52.4,14.3,51.3,7.4,52.3z M34.7,13.9c0-1.9,0-3.8,0-5.7c0-0.5-0.1-0.7-0.7-0.6
	c-4.2,0.3-8.2,1.3-12,3.2c-0.4,0.2-0.5,0.4-0.3,0.8c2,3.3,3.9,6.7,5.8,10c0.2,0.3,0.4,0.3,0.7,0.2c1.8-0.9,3.8-1.4,5.8-1.6
	c0.5-0.1,0.6-0.2,0.6-0.7C34.7,17.7,34.7,15.8,34.7,13.9z M38.1,7.6c-0.5-0.1-0.6,0.1-0.6,0.5c0,3.9,0,7.7,0,11.6
	c0,0.3,0.1,0.5,0.5,0.5c2.1,0.2,4.1,0.7,6,1.6c0.3,0.1,0.5,0.1,0.6-0.2c1.9-3.4,3.9-6.7,5.8-10.1c0.2-0.4,0.1-0.5-0.2-0.7
	C46.4,9,42.3,7.9,38.1,7.6z M62.7,22.2c-0.2-0.3-0.3-0.5-0.4-0.7c-0.7-0.9-1.3-1.8-2-2.7c-1.9-2.4-4.2-4.3-6.7-6
	c-0.3-0.2-0.5-0.2-0.7,0.2c-0.2,0.4-0.5,0.9-0.7,1.3c-1.7,2.9-3.4,5.9-5.1,8.8c-0.2,0.3-0.2,0.5,0.1,0.7c1.7,1.2,3.2,2.7,4.4,4.4
	c0.2,0.3,0.4,0.3,0.7,0.1c2.2-1.3,4.4-2.5,6.6-3.8C60.1,23.7,61.4,22.9,62.7,22.2z M25.4,23.4c-0.1-0.2-0.1-0.3-0.2-0.4
	c-0.3-0.4-0.5-0.9-0.8-1.3c-1.7-2.9-3.4-5.9-5.1-8.8c-0.2-0.3-0.3-0.4-0.7-0.2c-3.5,2.3-6.4,5.3-8.8,8.7c-0.4,0.6-0.4,0.6,0.2,1
	c3.3,1.9,6.6,3.8,10,5.7c0.3,0.2,0.5,0.1,0.7-0.2c1.2-1.7,2.7-3.2,4.4-4.4C25.2,23.6,25.3,23.5,25.4,23.4z M55.1,38
	c0.2-0.1,0.4-0.1,0.6-0.2c3.6-1.4,7.3-2.4,11.2-3c0.4-0.1,0.5-0.2,0.5-0.6c-0.5-3.1-1.5-6.1-2.9-9c-0.2-0.4-0.4-0.5-0.9-0.3
	c-3.3,1.9-6.6,3.8-9.9,5.7c-0.4,0.2-0.4,0.4-0.3,0.8c0.7,1.5,1.1,3.1,1.4,4.7C55,36.8,55,37.3,55.1,38z M67.7,39.9
	C67.7,39.9,67.7,39.9,67.7,39.9c0-0.6,0-1.1,0-1.7c0-0.6-0.1-0.7-0.7-0.6c-4.7,0.8-9.2,2.1-13.5,4.3c-2.6,1.3-5.2,2.8-7.5,4.6
	c-0.3,0.2-0.3,0.4,0,0.6c0.9,0.9,1.8,1.8,2.7,2.7c0.3,0.3,0.5,0.2,0.7,0c1.2-0.8,2.4-1.6,3.7-2.4c4.4-2.6,9.1-4.2,14.1-5.1
	c0.4-0.1,0.6-0.3,0.6-0.7C67.6,41.1,67.7,40.5,67.7,39.9z M4.8,34.7c0.5-0.1,0.7-0.1,1-0.1c1-0.1,2-0.2,3-0.3
	c2.8-0.2,5.6-0.2,8.3,0.1c0.5,0,0.6-0.1,0.8-0.5c0.2-0.8,0.5-1.6,0.9-2.4c0.2-0.4,0.1-0.5-0.3-0.8c-3.3-1.9-6.5-3.8-9.8-5.7
	C8,24.6,8,24.6,7.7,25.4c-0.8,2-1.5,4.1-2.2,6.2C5.1,32.5,5,33.5,4.8,34.7z M32.6,70.6c-1.8-3.1-5.8-7.2-11.3-9.4
	c-3-1.2-6-1.7-9.2-1.6c2.5,3,5.4,5.5,8.8,7.3C24.5,68.9,28.4,70.1,32.6,70.6z M67.2,45.3c-0.4,0-0.6,0.1-0.7,0.1
	C63.2,46,60,47.1,57,48.6c-1.9,1-3.7,2.2-5.6,3.3c-0.6,0.4-0.6,0.5-0.2,1c0.7,0.9,1.4,1.8,2,2.7c0.3,0.4,0.4,0.4,0.8,0.2
	c1.1-0.7,2.2-1.5,3.3-2.1c2.5-1.4,5.1-2.4,7.9-3.2c0.2-0.1,0.5-0.2,0.6-0.4C66.3,48.5,66.7,47,67.2,45.3z M64.1,53.8
	c-0.3,0-0.4,0-0.5,0.1c-3,1-5.7,2.5-8.2,4.3c-0.3,0.2-0.3,0.4-0.1,0.7c0.6,1,1.1,2.1,1.7,3.1c0.3,0.6,0.4,0.6,0.8,0.2
	c2.1-1.9,3.8-4.1,5.3-6.5C63.5,55.1,63.8,54.5,64.1,53.8z"/>
<g>
	<path class="st0" d="M90.4,80l-1.8-2.5c-0.2,0-0.5,0.1-0.7,0.1h-2.2V80h-0.5v-7.5h2.7c1.9,0,3,0.9,3,2.5c0,1.2-0.6,2-1.8,2.4L91,80
		L90.4,80L90.4,80z M87.9,77c1.6,0,2.5-0.8,2.5-2c0-1.3-0.9-2-2.5-2h-2.2V77L87.9,77L87.9,77z"/>
	<path class="st0" d="M108.1,79.5V80h-5.2v-7.5h5v0.5h-4.5v3h4v0.5h-4v3.1L108.1,79.5L108.1,79.5z"/>
	<path class="st0" d="M124.7,77.9h-4.4l-1,2.1h-0.6l3.5-7.5h0.5l3.5,7.5h-0.6L124.7,77.9z M124.5,77.4l-2-4.4l-2,4.4H124.5z"/>
	<path class="st0" d="M137.5,72.4h0.5v7.1h4.3V80h-4.9V72.4z"/>
	<path class="st0" d="M171.7,79.5V80h-5.2v-7.5h5v0.5H167v3h4v0.5h-4v3.1L171.7,79.5L171.7,79.5z"/>
	<path class="st0" d="M182.8,79l0.2-0.4c0.5,0.5,1.5,0.9,2.5,0.9c1.5,0,2.2-0.7,2.2-1.5c0-2.3-4.7-0.9-4.7-3.7c0-1.1,0.8-2,2.7-2
		c0.8,0,1.7,0.3,2.3,0.7l-0.2,0.4c-0.6-0.4-1.4-0.6-2.1-0.6c-1.5,0-2.1,0.7-2.1,1.5c0,2.3,4.7,0.9,4.7,3.7c0,1.1-0.9,2-2.7,2
		C184.5,80,183.4,79.6,182.8,79z"/>
	<path class="st0" d="M201.4,72.9h-2.7v-0.5h6v0.5H202V80h-0.6L201.4,72.9L201.4,72.9z"/>
	<path class="st0" d="M220.3,77.9h-4.4l-1,2.1h-0.6l3.5-7.5h0.5l3.5,7.5h-0.6L220.3,77.9z M220.1,77.4l-2-4.4l-2,4.4H220.1z"/>
	<path class="st0" d="M234.2,72.9h-2.7v-0.5h6v0.5h-2.7V80h-0.6L234.2,72.9L234.2,72.9z"/>
	<path class="st0" d="M254,79.5V80h-5.2v-7.5h5v0.5h-4.5v3h4v0.5h-4v3.1L254,79.5L254,79.5z"/>
</g>
<g>
	<path class="st0" d="M90.9,18.9v5.8c0,1.3,0.1,2,0.4,2.3c0.4,0.4,0.9,0.6,1.7,0.6h0.8v0.5h-8.5v-0.5H86c0.8,0,1.4-0.3,1.8-0.8
		c0.2-0.3,0.3-1,0.3-2.2V11.8c0-1.3-0.1-2-0.4-2.3c-0.4-0.4-1-0.6-1.7-0.6h-0.8V8.3h7.3c1.8,0,3.2,0.2,4.2,0.6c1,0.4,1.9,1,2.6,1.9
		c0.7,0.9,1.1,1.9,1.1,3.1c0,1.6-0.5,3-1.6,4c-1.1,1-2.6,1.5-4.5,1.5c-0.5,0-1,0-1.6-0.1S91.5,19,90.9,18.9z M90.9,18
		c0.5,0.1,1,0.2,1.4,0.2c0.4,0,0.7,0.1,1,0.1c1,0,1.9-0.4,2.6-1.2c0.7-0.8,1.1-1.8,1.1-3.1c0-0.9-0.2-1.7-0.5-2.4S95.7,10.4,95,10
		c-0.6-0.4-1.4-0.6-2.2-0.6c-0.5,0-1.1,0.1-1.9,0.3V18z"/>
	<path class="st0" d="M112.5,21.5h-7.7l-1.4,3.1c-0.3,0.8-0.5,1.4-0.5,1.7c0,0.3,0.1,0.6,0.4,0.8s0.9,0.4,1.9,0.4v0.5h-6.3v-0.5
		c0.8-0.1,1.4-0.3,1.6-0.6c0.5-0.5,1.1-1.4,1.7-2.9l7-16.4h0.5l6.9,16.6c0.6,1.3,1.1,2.2,1.5,2.6c0.5,0.4,1.1,0.6,1.9,0.7v0.5h-7.9
		v-0.5c0.8,0,1.3-0.2,1.6-0.4c0.3-0.2,0.4-0.5,0.4-0.8c0-0.4-0.2-1.1-0.6-2L112.5,21.5z M112,20.4l-3.4-8.1l-3.5,8.1H112z"/>
	<path class="st0" d="M140.8,28.2h-5.3l-6.7-9.3c-0.5,0-0.9,0-1.2,0c-0.1,0-0.3,0-0.4,0c-0.1,0-0.3,0-0.5,0v5.8c0,1.3,0.1,2,0.4,2.3
		c0.4,0.4,0.9,0.6,1.7,0.6h0.8v0.5h-8.5v-0.5h0.8c0.8,0,1.4-0.3,1.8-0.8c0.2-0.3,0.3-1,0.3-2.2V11.8c0-1.3-0.1-2-0.4-2.3
		c-0.4-0.4-1-0.6-1.7-0.6h-0.8V8.3h7.3c2.1,0,3.7,0.2,4.7,0.5s1.9,0.9,2.6,1.7c0.7,0.8,1.1,1.8,1.1,3c0,1.2-0.4,2.3-1.2,3.2
		c-0.8,0.9-2,1.5-3.7,1.9l4.1,5.7c0.9,1.3,1.7,2.2,2.4,2.6c0.7,0.4,1.6,0.7,2.6,0.8V28.2z M126.6,17.9c0.2,0,0.3,0,0.5,0
		c0.1,0,0.2,0,0.3,0c1.9,0,3.3-0.4,4.3-1.2c1-0.8,1.4-1.9,1.4-3.1c0-1.2-0.4-2.3-1.2-3s-1.8-1.2-3.1-1.2c-0.6,0-1.3,0.1-2.3,0.3
		V17.9z"/>
	<path class="st0" d="M154.3,21.5h-7.7l-1.4,3.1c-0.3,0.8-0.5,1.4-0.5,1.7c0,0.3,0.1,0.6,0.4,0.8s0.9,0.4,1.9,0.4v0.5h-6.3v-0.5
		c0.8-0.1,1.4-0.3,1.6-0.6c0.5-0.5,1.1-1.4,1.7-2.9l7-16.4h0.5l6.9,16.6c0.6,1.3,1.1,2.2,1.5,2.6c0.5,0.4,1.1,0.6,1.9,0.7v0.5H154
		v-0.5c0.8,0,1.3-0.2,1.6-0.4c0.3-0.2,0.4-0.5,0.4-0.8c0-0.4-0.2-1.1-0.6-2L154.3,21.5z M153.9,20.4l-3.4-8.1l-3.5,8.1H153.9z"/>
	<path class="st0" d="M171.5,27.6v0.5H163v-0.5h0.7c0.8,0,1.4-0.2,1.8-0.7c0.2-0.3,0.4-1.1,0.4-2.3V11.8c0-1-0.1-1.7-0.2-2
		c-0.1-0.2-0.3-0.5-0.6-0.6c-0.4-0.2-0.9-0.4-1.4-0.4H163V8.3h8.5v0.5h-0.7c-0.8,0-1.4,0.2-1.8,0.7c-0.2,0.3-0.4,1.1-0.4,2.3v12.9
		c0,1,0.1,1.7,0.2,2c0.1,0.2,0.3,0.5,0.6,0.6c0.4,0.2,0.9,0.4,1.3,0.4H171.5z M170.6,1.8l-4.3,5.1h-0.5l1.5-5.1H170.6z"/>
	<path class="st0" d="M186.1,7.8v6.9h-0.5c-0.2-1.3-0.5-2.4-0.9-3.2c-0.5-0.8-1.1-1.4-1.9-1.9S180.9,9,180,9c-1,0-1.9,0.3-2.5,0.9
		c-0.7,0.6-1,1.3-1,2.1c0,0.6,0.2,1.2,0.6,1.7c0.6,0.7,2.1,1.7,4.3,2.9c1.9,1,3.1,1.8,3.8,2.3c0.7,0.5,1.2,1.2,1.6,1.9
		c0.4,0.7,0.6,1.5,0.6,2.3c0,1.5-0.6,2.8-1.8,3.9s-2.7,1.6-4.5,1.6c-0.6,0-1.1,0-1.6-0.1c-0.3,0-0.9-0.2-1.9-0.5
		c-1-0.3-1.6-0.5-1.8-0.5c-0.2,0-0.4,0.1-0.6,0.2c-0.1,0.1-0.2,0.5-0.3,0.9h-0.5v-6.8h0.5c0.3,1.4,0.6,2.5,1,3.2
		c0.4,0.7,1.1,1.3,2,1.8c0.9,0.5,1.9,0.7,2.9,0.7c1.2,0,2.2-0.3,2.9-1c0.7-0.6,1.1-1.4,1.1-2.3c0-0.5-0.1-1-0.4-1.5s-0.7-1-1.3-1.4
		c-0.4-0.3-1.4-0.9-3.1-1.9c-1.7-1-2.9-1.7-3.6-2.3c-0.7-0.6-1.3-1.2-1.6-1.9c-0.4-0.7-0.6-1.4-0.6-2.3c0-1.4,0.5-2.7,1.6-3.7
		c1.1-1,2.5-1.6,4.2-1.6c1.1,0,2.2,0.3,3.4,0.8c0.5,0.2,0.9,0.4,1.2,0.4c0.3,0,0.5-0.1,0.6-0.2c0.2-0.2,0.3-0.5,0.4-0.9H186.1z"/>
	<path class="st0" d="M200,7.8c2.6,0,4.8,1,6.7,2.9s2.8,4.4,2.8,7.4c0,3-1,5.5-2.9,7.5c-1.9,2-4.2,3-6.9,3c-2.7,0-5-1-6.9-2.9
		c-1.9-2-2.8-4.5-2.8-7.6c0-3.2,1.1-5.7,3.2-7.7C195.2,8.7,197.4,7.8,200,7.8z M199.7,8.9c-1.8,0-3.2,0.7-4.3,2
		c-1.3,1.6-2,4.1-2,7.2c0,3.3,0.7,5.8,2.1,7.5c1.1,1.3,2.5,2,4.2,2c1.9,0,3.4-0.7,4.6-2.2c1.2-1.5,1.8-3.8,1.8-6.9
		c0-3.4-0.7-6-2-7.6C203.1,9.5,201.7,8.9,199.7,8.9z"/>
</g>
<g>
	<path class="st0" d="M82.4,64.4v-0.7h1c1.1,0,2-0.4,2.4-1.1c0.3-0.4,0.4-1.4,0.4-3V42c0-1.7-0.2-2.8-0.6-3.2
		c-0.5-0.6-1.3-0.9-2.3-0.9h-1v-0.7h11c4.1,0,7.1,0.5,9.2,1.4s3.8,2.5,5.1,4.6c1.3,2.1,1.9,4.6,1.9,7.4c0,3.8-1.1,6.9-3.4,9.5
		c-2.6,2.8-6.5,4.2-11.8,4.2H82.4z M90.1,62.4c1.7,0.4,3.1,0.6,4.3,0.6c3.1,0,5.7-1.1,7.7-3.3c2-2.2,3.1-5.1,3.1-8.8
		c0-3.7-1-6.7-3.1-8.9c-2-2.2-4.7-3.2-7.9-3.2c-1.2,0-2.6,0.2-4.1,0.6V62.4z"/>
	<path class="st0" d="M126.3,36.6c3.5,0,6.6,1.3,9.1,4c2.6,2.7,3.9,6,3.9,10c0,4.1-1.3,7.5-3.9,10.3c-2.6,2.7-5.7,4.1-9.4,4.1
		c-3.7,0-6.9-1.3-9.4-4c-2.5-2.7-3.8-6.1-3.8-10.3c0-4.3,1.5-7.8,4.4-10.5C119.7,37.8,122.7,36.6,126.3,36.6z M125.9,38.1
		c-2.4,0-4.4,0.9-5.8,2.7c-1.8,2.2-2.7,5.5-2.7,9.8c0,4.4,0.9,7.8,2.8,10.2c1.5,1.8,3.4,2.7,5.8,2.7c2.5,0,4.6-1,6.3-3
		c1.7-2,2.5-5.1,2.5-9.4c0-4.6-0.9-8.1-2.7-10.4C130.5,39,128.5,38.1,125.9,38.1z"/>
	<path class="st0" d="M168.5,64.4h-7.2l-9.2-12.7c-0.7,0-1.2,0-1.7,0c-0.2,0-0.4,0-0.6,0s-0.4,0-0.6,0v7.9c0,1.7,0.2,2.8,0.6,3.2
		c0.5,0.6,1.3,0.9,2.3,0.9h1.1v0.7h-11.6v-0.7h1c1.1,0,2-0.4,2.5-1.1c0.3-0.4,0.4-1.4,0.4-2.9V42c0-1.7-0.2-2.8-0.6-3.2
		c-0.5-0.6-1.3-0.9-2.3-0.9h-1v-0.7h9.9c2.9,0,5,0.2,6.4,0.6c1.4,0.4,2.5,1.2,3.5,2.3c1,1.1,1.4,2.5,1.4,4c0,1.7-0.5,3.1-1.6,4.3
		s-2.8,2.1-5,2.6l5.6,7.8c1.3,1.8,2.4,3,3.3,3.6c0.9,0.6,2.1,1,3.6,1.1V64.4z M149.3,50.4c0.3,0,0.5,0,0.7,0c0.2,0,0.3,0,0.5,0
		c2.6,0,4.5-0.6,5.8-1.7c1.3-1.1,2-2.5,2-4.3c0-1.7-0.5-3.1-1.6-4.1c-1.1-1.1-2.5-1.6-4.2-1.6c-0.8,0-1.8,0.1-3.1,0.4V50.4z"/>
	<path class="st0" d="M186.9,55.3h-10.5l-1.8,4.3c-0.5,1.1-0.7,1.8-0.7,2.4c0,0.4,0.2,0.8,0.6,1.1c0.4,0.3,1.2,0.5,2.5,0.6v0.7h-8.5
		v-0.7c1.1-0.2,1.9-0.5,2.2-0.8c0.7-0.6,1.4-1.9,2.3-3.9l9.5-22.3h0.7l9.4,22.6c0.8,1.8,1.5,3,2.1,3.5c0.6,0.5,1.5,0.8,2.6,0.9v0.7
		h-10.7v-0.7c1.1-0.1,1.8-0.2,2.2-0.5s0.6-0.7,0.6-1.1c0-0.6-0.3-1.5-0.8-2.8L186.9,55.3z M186.3,53.8l-4.6-11l-4.7,11H186.3z"/>
	<path class="st0" d="M198.4,64.4v-0.7h1c1.1,0,2-0.4,2.4-1.1c0.3-0.4,0.4-1.4,0.4-3V42c0-1.7-0.2-2.8-0.6-3.2
		c-0.5-0.6-1.3-0.9-2.3-0.9h-1v-0.7h11c4.1,0,7.1,0.5,9.2,1.4s3.8,2.5,5.1,4.6c1.3,2.1,1.9,4.6,1.9,7.4c0,3.8-1.1,6.9-3.4,9.5
		c-2.6,2.8-6.5,4.2-11.8,4.2H198.4z M206.2,62.4c1.7,0.4,3.1,0.6,4.3,0.6c3.1,0,5.7-1.1,7.7-3.3c2-2.2,3.1-5.1,3.1-8.8
		c0-3.7-1-6.7-3.1-8.9c-2-2.2-4.7-3.2-7.9-3.2c-1.2,0-2.6,0.2-4.1,0.6V62.4z"/>
	<path class="st0" d="M242.3,36.6c3.5,0,6.6,1.3,9.1,4c2.6,2.7,3.9,6,3.9,10c0,4.1-1.3,7.5-3.9,10.3c-2.6,2.7-5.7,4.1-9.4,4.1
		c-3.7,0-6.9-1.3-9.4-4c-2.5-2.7-3.8-6.1-3.8-10.3c0-4.3,1.5-7.8,4.4-10.5C235.7,37.8,238.8,36.6,242.3,36.6z M241.9,38.1
		c-2.4,0-4.4,0.9-5.8,2.7c-1.8,2.2-2.7,5.5-2.7,9.8c0,4.4,0.9,7.8,2.8,10.2c1.5,1.8,3.4,2.7,5.8,2.7c2.5,0,4.6-1,6.3-3
		c1.7-2,2.5-5.1,2.5-9.4c0-4.6-0.9-8.1-2.7-10.4C246.5,39,244.5,38.1,241.9,38.1z"/>
</g>
</svg>
